Coordinates
version=1
nRows=19
nColumns=38
inDegrees=no

Units are S.I. units (second, meters, Newtons, ...)
If the header above contains a line with 'inDegrees', this indicates whether rotational values are in degrees (yes) or radians (no).

endheader
time	pelvis_tilt	pelvis_list	pelvis_rotation	pelvis_tx	pelvis_ty	pelvis_tz	hip_flexion_r	hip_adduction_r	hip_rotation_r	knee_angle_r	ankle_angle_r	subtalar_angle_r	mtp_angle_r	hip_flexion_l	hip_adduction_l	hip_rotation_l	knee_angle_l	ankle_angle_l	subtalar_angle_l	mtp_angle_l	lumbar_extension	lumbar_bending	lumbar_rotation	arm_flex_r	arm_add_r	arm_rot_r	elbow_flex_r	pro_sup_r	wrist_flex_r	wrist_dev_r	arm_flex_l	arm_add_l	arm_rot_l	elbow_flex_l	pro_sup_l	wrist_flex_l	wrist_dev_l
4.89	2.50519	1.53028	2.21867	0.703792	-0.483112	0.962962	-0.0508211	-0.0248532	-0.184282	0.0376886	0.0046927	0	0	-0.0423584	0.0214895	-0.0936905	0.0953169	0.0385582	0	0	0.0486895	-0.000370581	-0.0285792	-0.0609461	-0.11403	0.0382511	0.413465	1.5708	0	0	-0.103121	-0.193441	0.448593	0.564182	1.02302	0	0
4.9	2.52647	1.52998	2.19886	0.703961	-0.483264	0.962906	-0.0506391	-0.0242508	-0.185569	0.0371667	0.00467093	0	0	-0.041243	0.0209384	-0.0930987	0.0959829	0.0391162	0	0	0.049875	-0.000585261	-0.0284822	-0.0596063	-0.111176	0.0418064	0.4138	1.5708	0	0	-0.102772	-0.192656	0.449201	0.564334	1.02201	0	0
4.91	2.54171	1.52979	2.18439	0.704059	-0.483379	0.962858	-0.0503791	-0.0238265	-0.186172	0.0370251	0.0049753	0	0	-0.04055	0.0205864	-0.0928743	0.0962444	0.0395834	0	0	0.0507356	-0.00100881	-0.0276779	-0.0581598	-0.108431	0.0442185	0.414314	1.5708	0	0	-0.102189	-0.192257	0.450891	0.564756	1.02172	0	0
4.92	2.54808	1.52986	2.17787	0.704038	-0.483428	0.962818	-0.0500397	-0.0235893	-0.185903	0.0376909	0.0054272	0	0	-0.0404544	0.0203558	-0.093312	0.0962253	0.0397664	0	0	0.0508301	-0.00159074	-0.0262464	-0.056292	-0.105715	0.0463184	0.414436	1.5708	0	0	-0.101568	-0.192156	0.452731	0.56553	1.0223	0	0
4.93	2.55902	1.5299	2.16736	0.70406	-0.483501	0.962753	-0.0496829	-0.0231844	-0.186239	0.0382891	0.00583041	0	0	-0.0401985	0.0199195	-0.0930222	0.0964297	0.03997	0	0	0.0511626	-0.00205401	-0.0257132	-0.0543417	-0.103185	0.0487395	0.413916	1.5708	0	0	-0.101224	-0.192189	0.455042	0.566318	1.02336	0	0
4.94	2.56934	1.52992	2.15759	0.704133	-0.483592	0.962685	-0.0494119	-0.0228284	-0.187109	0.0387284	0.00608654	0	0	-0.0402896	0.0195793	-0.092127	0.0959828	0.0400532	0	0	0.051561	-0.00252982	-0.0254763	-0.0523322	-0.100779	0.0494902	0.413333	1.5708	0	0	-0.101079	-0.191996	0.456577	0.566704	1.02514	0	0
4.95	2.57931	1.52997	2.14803	0.704208	-0.483657	0.962634	-0.04896	-0.0225233	-0.188086	0.0395038	0.00638391	0	0	-0.0406774	0.0192441	-0.0909796	0.0949677	0.0399226	0	0	0.0517745	-0.00294266	-0.0256085	-0.0499979	-0.0988201	0.0511103	0.412619	1.5708	0	0	-0.101135	-0.191442	0.456588	0.566593	1.02829	0	0
4.96	2.59046	1.52999	2.13701	0.704225	-0.483745	0.962582	-0.0485961	-0.0221367	-0.188482	0.0399694	0.00694534	0	0	-0.0413708	0.0188106	-0.0900316	0.0933701	0.0396982	0	0	0.0521745	-0.00338327	-0.025613	-0.0476071	-0.0970779	0.0535783	0.411568	1.5708	0	0	-0.101403	-0.190612	0.455082	0.566057	1.03344	0	0
4.97	2.59796	1.52992	2.12948	0.70421	-0.483866	0.962521	-0.0481301	-0.021964	-0.188994	0.0407082	0.00763702	0	0	-0.0423291	0.0185447	-0.0890977	0.0913749	0.0392628	0	0	0.0526991	-0.0040504	-0.0254077	-0.0452733	-0.0955473	0.0566374	0.409901	1.5708	0	0	-0.101899	-0.189581	0.452116	0.565405	1.03951	0	0
4.98	2.60516	1.52966	2.12207	0.70416	-0.484001	0.962446	-0.0472881	-0.0219373	-0.189553	0.0417752	0.00846952	0	0	-0.0432761	0.0183952	-0.0883906	0.0891262	0.0386095	0	0	0.0534766	-0.00486198	-0.0250326	-0.0430247	-0.0943066	0.0604499	0.40777	1.5708	0	0	-0.102178	-0.18911	0.451488	0.56444	1.04496	0	0
4.99	2.61247	1.52931	2.11436	0.704071	-0.484166	0.962376	-0.0463342	-0.0219118	-0.189934	0.042911	0.00937446	0	0	-0.0443639	0.018258	-0.087896	0.0865591	0.0379268	0	0	0.0544426	-0.00577784	-0.0245707	-0.0408426	-0.0934571	0.0652902	0.405291	1.5708	0	0	-0.102228	-0.189471	0.45414	0.563466	1.04829	0	0
5	2.61627	1.52902	2.10996	0.703987	-0.48441	0.962321	-0.0457691	-0.021926	-0.189809	0.043711	0.0101305	0	0	-0.0460001	0.0182623	-0.0875982	0.0834076	0.0370845	0	0	0.0554346	-0.00673081	-0.0238455	-0.0389231	-0.0928646	0.0707946	0.403267	1.5708	0	0	-0.102053	-0.190341	0.459587	0.562366	1.04795	0	0
5.01	2.61809	1.52872	2.10728	0.703888	-0.484618	0.962271	-0.0449433	-0.0221055	-0.189453	0.044946	0.0110066	0	0	-0.04753	0.0184218	-0.0876331	0.0804385	0.0361934	0	0	0.0562087	-0.00764739	-0.0227655	-0.0371824	-0.0922612	0.0762862	0.401033	1.5708	0	0	-0.101834	-0.190792	0.4635	0.561079	1.04604	0	0
5.02	2.62155	1.52852	2.1029	0.70375	-0.484761	0.962228	-0.0438885	-0.0221647	-0.189375	0.0465687	0.0120196	0	0	-0.048727	0.0184091	-0.0877582	0.0780906	0.035497	0	0	0.0567575	-0.00846101	-0.021515	-0.0355012	-0.0919182	0.0818408	0.398708	1.5708	0	0	-0.101376	-0.190914	0.465734	0.559365	1.04467	0	0
5.03	2.62631	1.52873	2.09802	0.703625	-0.484917	0.962189	-0.0437715	-0.0217887	-0.189764	0.0473004	0.0126984	0	0	-0.0496845	0.0179569	-0.0873195	0.0768393	0.0353667	0	0	0.0569096	-0.00913259	-0.0211711	-0.033896	-0.0915843	0.0866676	0.39665	1.5708	0	0	-0.100903	-0.191197	0.467355	0.557651	1.04392	0	0
5.04	2.62838	1.52906	2.09551	0.703473	-0.485158	0.96215	-0.0442436	-0.0213724	-0.18948	0.0473442	0.0131115	0	0	-0.0508884	0.0175824	-0.0873243	0.0756784	0.0352967	0	0	0.0570536	-0.0097485	-0.0206889	-0.0327984	-0.0912894	0.0894562	0.39552	1.5708	0	0	-0.100719	-0.191286	0.468165	0.555894	1.0425	0	0
5.05	2.625	1.52936	2.09826	0.703311	-0.485372	0.962124	-0.044826	-0.0211713	-0.188766	0.0472438	0.0134531	0	0	-0.0519457	0.0174828	-0.0873494	0.0749134	0.0352882	0	0	0.0570013	-0.010531	-0.0200502	-0.0318246	-0.091296	0.0921112	0.394786	1.5708	0	0	-0.100407	-0.191284	0.468568	0.553865	1.04056	0	0
5.06	2.61774	1.52975	2.10495	0.703142	-0.485546	0.962114	-0.0452845	-0.0211186	-0.188376	0.0476549	0.0141141	0	0	-0.0527523	0.0174407	-0.0872987	0.0748942	0.035562	0	0	0.0568115	-0.0114715	-0.0191078	-0.0313187	-0.0915583	0.0947678	0.394763	1.5708	0	0	-0.0996473	-0.191407	0.469162	0.551681	1.03865	0	0
5.07	2.61018	1.53018	2.1119	0.70295	-0.485776	0.9621	-0.045813	-0.0210323	-0.188033	0.0481737	0.0148937	0	0	-0.0534489	0.0173443	-0.0876182	0.0753677	0.0361719	0	0	0.0567894	-0.0123745	-0.0179808	-0.0313215	-0.0915984	0.0960921	0.394556	1.5708	0	0	-0.0989511	-0.191559	0.469546	0.549519	1.03752	0	0
